<?xml version="1.0" encoding="UTF-8" standalone="no"?>
<svg
   xmlns:dc="http://purl.org/dc/elements/1.1/"
   xmlns:cc="http://creativecommons.org/ns#"
   xmlns:rdf="http://www.w3.org/1999/02/22-rdf-syntax-ns#"
   xmlns:svg="http://www.w3.org/2000/svg"
   xmlns="http://www.w3.org/2000/svg"
   xmlns:sodipodi="http://sodipodi.sourceforge.net/DTD/sodipodi-0.dtd"
   xmlns:inkscape="http://www.inkscape.org/namespaces/inkscape"
   width="140"
   height="30"
   viewBox="0 0 37.041666 7.9375002"
   version="1.1"
   id="svg8"
   inkscape:version="1.0 (1.0+r73+1)"
   sodipodi:docname="wordmark.svg">
  <defs
     id="defs2" />
  <sodipodi:namedview
     id="base"
     pagecolor="#ffffff"
     bordercolor="#666666"
     borderopacity="1.0"
     inkscape:pageopacity="0.0"
     inkscape:pageshadow="2"
     inkscape:zoom="3.4539447"
     inkscape:cx="41.453774"
     inkscape:cy="52.83911"
     inkscape:document-units="mm"
     inkscape:current-layer="layer1"
     inkscape:document-rotation="0"
     showgrid="false"
     inkscape:window-width="1347"
     inkscape:window-height="881"
     inkscape:window-x="2026"
     inkscape:window-y="802"
     inkscape:window-maximized="0"
     units="px" />
  <metadata
     id="metadata5">
    <rdf:RDF>
      <cc:Work
         rdf:about="">
        <dc:format>image/svg+xml</dc:format>
        <dc:type
           rdf:resource="http://purl.org/dc/dcmitype/StillImage" />
        <dc:title></dc:title>
      </cc:Work>
    </rdf:RDF>
  </metadata>
  <g
     inkscape:label="Layer 1"
     inkscape:groupmode="layer"
     id="layer1">
    <rect
       style="opacity:1;fill:#000000;fill-opacity:1;stroke:#ffffff;stroke-width:10;stroke-linecap:round;stroke-linejoin:round;stroke-miterlimit:4;stroke-dasharray:none;stroke-opacity:1"
       id="rect3200"
       width="10.104544"
       height="21.811413"
       x="-369.09842"
       y="-910.38013" />
    <text
       xml:space="preserve"
       style="font-style:normal;font-weight:normal;font-size:10.5833px;line-height:1.25;font-family:sans-serif;letter-spacing:0px;word-spacing:0px;fill:#000000;fill-opacity:1;stroke:none;stroke-width:0.264583"
       x="-6.9134865"
       y="-6.1855221"
       id="text899"><tspan
         sodipodi:role="line"
         id="tspan897"
         x="-6.9134865"
         y="-6.1855221"
         style="stroke-width:0.264583" /></text>
    <g
       transform="matrix(0.94489179,0,0,0.94489179,-2.836135e-8,3.1835947e-4)"
       id="g1488">
      <g
         inkscape:export-ydpi="96"
         inkscape:export-xdpi="96"
         style="font-style:normal;font-weight:normal;font-size:219.676px;line-height:1.25;font-family:sans-serif;letter-spacing:0px;word-spacing:0px;opacity:0.2;fill:#000000;fill-opacity:1;stroke:#000000;stroke-width:29.2421;stroke-linecap:round;stroke-linejoin:miter;stroke-miterlimit:4;stroke-dasharray:none"
         id="g1462"
         aria-label="shinobi"
         transform="matrix(0.04524011,0,0,0.04524011,14.283435,-2.3797299)">
        <path
           id="path1448"
           style="font-style:normal;font-variant:normal;font-weight:normal;font-stretch:normal;font-family:'Japanese 3017';-inkscape-font-specification:'Japanese 3017, ';fill:#000000;stroke:#000000;stroke-width:29.2421;stroke-linecap:round;stroke-linejoin:miter;stroke-miterlimit:4;stroke-dasharray:none"
           d="m -177.71465,170.16252 q 0,53.63184 -53.63183,53.63184 h -64.3582 v -32.1791 h 64.3582 q 21.45273,0 21.45273,-21.45274 h -85.81093 v -32.1791 q 0,-53.631833 53.63183,-53.631833 h 64.3582 v 32.179103 h -64.3582 q -21.45273,0 -21.45273,21.45273 h 85.81093 z" />
        <path
           id="path1450"
           style="font-style:normal;font-variant:normal;font-weight:normal;font-stretch:normal;font-family:'Japanese 3017';-inkscape-font-specification:'Japanese 3017, ';fill:#000000;stroke:#000000;stroke-width:29.2421;stroke-linecap:round;stroke-linejoin:miter;stroke-miterlimit:4;stroke-dasharray:none"
           d="m -27.545511,137.98342 v 32.1791 h -10.726367 v 53.63184 h -32.179101 v -53.63184 h -53.631831 v 21.45274 q 0,32.1791 -32.1791,32.1791 h -10.72637 v -32.1791 h 10.72637 V 84.351587 h 32.1791 v 53.631833 h 53.631831 V 84.351587 h 32.179101 v 53.631833 z" />
        <path
           id="path1452"
           style="font-style:normal;font-variant:normal;font-weight:normal;font-stretch:normal;font-family:'Japanese 3017';-inkscape-font-specification:'Japanese 3017, ';fill:#000000;stroke:#000000;stroke-width:29.2421;stroke-linecap:round;stroke-linejoin:miter;stroke-miterlimit:4;stroke-dasharray:none"
           d="m -16.819122,84.351587 h 32.1791 V 191.61526 h 10.726367 v 32.1791 H 15.359978 q -32.1791,0 -32.1791,-32.1791 z" />
        <path
           id="path1454"
           style="font-style:normal;font-variant:normal;font-weight:normal;font-stretch:normal;font-family:'Japanese 3017';-inkscape-font-specification:'Japanese 3017, ';fill:#000000;stroke:#000000;stroke-width:29.2421;stroke-linecap:round;stroke-linejoin:miter;stroke-miterlimit:4;stroke-dasharray:none"
           d="M 165.52912,84.351587 V 191.61526 h 10.72636 v 32.1791 h -10.72636 q -32.1791,0 -32.1791,-32.1791 v -74.97731 q -64.250942,2.57433 -64.358206,53.41731 v 53.7391 h -32.1791 V 84.351587 h 32.1791 V 101.62104 Q 92.589822,84.351587 133.35002,84.351587 Z" />
        <path
           id="path1456"
           style="font-style:normal;font-variant:normal;font-weight:normal;font-stretch:normal;font-family:'Japanese 3017';-inkscape-font-specification:'Japanese 3017, ';fill:#000000;stroke:#000000;stroke-width:29.2421;stroke-linecap:round;stroke-linejoin:miter;stroke-miterlimit:4;stroke-dasharray:none"
           d="m 219.16094,116.53069 v 75.08457 l 53.63184,-0.10727 v -74.9773 z m 42.90547,-32.286367 h 42.90547 V 223.79436 h -32.1791 v -0.10727 l -53.63184,0.10727 h -32.1791 V 84.351587 h 42.90547 V 73.62522 h 32.1791 z" />
        <path
           id="path1458"
           style="font-style:normal;font-variant:normal;font-weight:normal;font-stretch:normal;font-family:'Japanese 3017';-inkscape-font-specification:'Japanese 3017, ';fill:#000000;stroke:#000000;stroke-width:5.84184;stroke-linecap:round;stroke-linejoin:miter;stroke-miterlimit:4;stroke-dasharray:none"
           d="M 122.85742,2.1425781 V 8.5722656 H 125 v 4.2851564 h -0.0293 v 6.427734 H 125 v 4.28711 h -2.0957 V 30 h 19.23828 c 4.28571,0 6.42969,-2.142021 6.42969,-6.427734 V 2.1425781 Z m 8.57031,6.4296875 h 10.71485 v 4.2851564 h -10.71485 z m 0,10.7128904 h 10.71485 v 4.28711 h -10.71485 z"
           transform="matrix(5.0056375,0,0,5.0056375,-299.2801,73.625227)" />
        <path
           id="path1460"
           style="font-style:normal;font-variant:normal;font-weight:normal;font-stretch:normal;font-family:'Japanese 3017';-inkscape-font-specification:'Japanese 3017, ';fill:#000000;stroke:#000000;stroke-width:29.2421;stroke-linecap:round;stroke-linejoin:miter;stroke-miterlimit:4;stroke-dasharray:none"
           d="m 455.14102,84.351587 h 32.1791 V 191.61526 h 10.72637 v 32.1791 h -10.72637 q -32.1791,0 -32.1791,-32.1791 z" />
      </g>
      <g
         transform="matrix(0.04524011,0,0,0.04524011,13.943851,-2.7588968)"
         aria-label="shinobi"
         id="g201"
         style="font-style:normal;font-weight:normal;font-size:219.676px;line-height:1.25;font-family:sans-serif;letter-spacing:0px;word-spacing:0px;fill:#ffffff;fill-opacity:1;stroke:#ffffff;stroke-width:25.0282;stroke-miterlimit:4;stroke-dasharray:none"
         inkscape:export-xdpi="96"
         inkscape:export-ydpi="96">
        <path
           d="m -177.71465,170.16252 q 0,53.63184 -53.63183,53.63184 h -64.3582 v -32.1791 h 64.3582 q 21.45273,0 21.45273,-21.45274 h -85.81093 v -32.1791 q 0,-53.631833 53.63183,-53.631833 h 64.3582 v 32.179103 h -64.3582 q -21.45273,0 -21.45273,21.45273 h 85.81093 z"
           style="font-style:normal;font-variant:normal;font-weight:normal;font-stretch:normal;font-family:'Japanese 3017';-inkscape-font-specification:'Japanese 3017, ';fill:#ffffff;stroke:#ffffff;stroke-width:25.0282;stroke-miterlimit:4;stroke-dasharray:none"
           id="path187" />
        <path
           d="m -27.545511,137.98342 v 32.1791 h -10.726367 v 53.63184 h -32.179101 v -53.63184 h -53.631831 v 21.45274 q 0,32.1791 -32.1791,32.1791 h -10.72637 v -32.1791 h 10.72637 V 84.351587 h 32.1791 v 53.631833 h 53.631831 V 84.351587 h 32.179101 v 53.631833 z"
           style="font-style:normal;font-variant:normal;font-weight:normal;font-stretch:normal;font-family:'Japanese 3017';-inkscape-font-specification:'Japanese 3017, ';fill:#ffffff;stroke:#ffffff;stroke-width:25.0282;stroke-miterlimit:4;stroke-dasharray:none"
           id="path189" />
        <path
           d="m -16.819122,84.351587 h 32.1791 V 191.61526 h 10.726367 v 32.1791 H 15.359978 q -32.1791,0 -32.1791,-32.1791 z"
           style="font-style:normal;font-variant:normal;font-weight:normal;font-stretch:normal;font-family:'Japanese 3017';-inkscape-font-specification:'Japanese 3017, ';fill:#ffffff;stroke:#ffffff;stroke-width:25.0282;stroke-miterlimit:4;stroke-dasharray:none"
           id="path191" />
        <path
           d="M 165.52912,84.351587 V 191.61526 h 10.72636 v 32.1791 h -10.72636 q -32.1791,0 -32.1791,-32.1791 v -74.97731 q -64.250942,2.57433 -64.358206,53.41731 v 53.7391 h -32.1791 V 84.351587 h 32.1791 V 101.62104 Q 92.589822,84.351587 133.35002,84.351587 Z"
           style="font-style:normal;font-variant:normal;font-weight:normal;font-stretch:normal;font-family:'Japanese 3017';-inkscape-font-specification:'Japanese 3017, ';fill:#ffffff;stroke:#ffffff;stroke-width:25.0282;stroke-miterlimit:4;stroke-dasharray:none"
           id="path193" />
        <path
           d="m 219.16094,116.53069 v 75.08457 l 53.63184,-0.10727 v -74.9773 z m 42.90547,-32.286367 h 42.90547 V 223.79436 h -32.1791 v -0.10727 l -53.63184,0.10727 h -32.1791 V 84.351587 h 42.90547 V 73.62522 h 32.1791 z"
           style="font-style:normal;font-variant:normal;font-weight:normal;font-stretch:normal;font-family:'Japanese 3017';-inkscape-font-specification:'Japanese 3017, ';fill:#ffffff;stroke:#ffffff;stroke-width:25.0282;stroke-miterlimit:4;stroke-dasharray:none"
           id="path195" />
        <path
           transform="matrix(5.0056375,0,0,5.0056375,-299.2801,73.625227)"
           d="M 122.85742,2.1425781 V 8.5722656 H 125 v 4.2851564 h -0.0293 v 6.427734 H 125 v 4.28711 h -2.0957 V 30 h 19.23828 c 4.28571,0 6.42969,-2.142021 6.42969,-6.427734 V 2.1425781 Z m 8.57031,6.4296875 h 10.71485 v 4.2851564 h -10.71485 z m 0,10.7128904 h 10.71485 v 4.28711 h -10.71485 z"
           style="font-style:normal;font-variant:normal;font-weight:normal;font-stretch:normal;font-family:'Japanese 3017';-inkscape-font-specification:'Japanese 3017, ';fill:#ffffff;stroke:#ffffff;stroke-width:5;stroke-miterlimit:4;stroke-dasharray:none"
           id="path197" />
        <path
           d="m 455.14102,84.351587 h 32.1791 V 191.61526 h 10.72637 v 32.1791 h -10.72637 q -32.1791,0 -32.1791,-32.1791 z"
           style="font-style:normal;font-variant:normal;font-weight:normal;font-stretch:normal;font-family:'Japanese 3017';-inkscape-font-specification:'Japanese 3017, ';fill:#ffffff;stroke:#ffffff;stroke-width:25.0282;stroke-miterlimit:4;stroke-dasharray:none"
           id="path199" />
      </g>
      <g
         inkscape:export-ydpi="96"
         inkscape:export-xdpi="96"
         style="font-style:normal;font-weight:normal;font-size:219.676px;line-height:1.25;font-family:sans-serif;letter-spacing:0px;word-spacing:0px;fill:#333333;fill-opacity:1;stroke:none;stroke-width:5.4919"
         id="text12"
         aria-label="shinobi"
         transform="matrix(0.04524011,0,0,0.04524011,13.943851,-2.7588968)">
        <path
           id="path14"
           style="font-style:normal;font-variant:normal;font-weight:normal;font-stretch:normal;font-family:'Japanese 3017';-inkscape-font-specification:'Japanese 3017, ';fill:#333333;fill-opacity:1;stroke:none;stroke-width:5.4919"
           d="m -177.71465,170.16252 q 0,53.63184 -53.63183,53.63184 h -64.3582 v -32.1791 h 64.3582 q 21.45273,0 21.45273,-21.45274 h -85.81093 v -32.1791 q 0,-53.631833 53.63183,-53.631833 h 64.3582 v 32.179103 h -64.3582 q -21.45273,0 -21.45273,21.45273 h 85.81093 z" />
        <path
           id="path16"
           style="font-style:normal;font-variant:normal;font-weight:normal;font-stretch:normal;font-family:'Japanese 3017';-inkscape-font-specification:'Japanese 3017, ';fill:#333333;fill-opacity:1;stroke:none;stroke-width:5.4919"
           d="m -27.545511,137.98342 v 32.1791 h -10.726367 v 53.63184 h -32.179101 v -53.63184 h -53.631831 v 21.45274 q 0,32.1791 -32.1791,32.1791 h -10.72637 v -32.1791 h 10.72637 V 84.351587 h 32.1791 v 53.631833 h 53.631831 V 84.351587 h 32.179101 v 53.631833 z" />
        <path
           id="path18"
           style="font-style:normal;font-variant:normal;font-weight:normal;font-stretch:normal;font-family:'Japanese 3017';-inkscape-font-specification:'Japanese 3017, ';fill:#333333;fill-opacity:1;stroke:none;stroke-width:5.4919"
           d="m -16.819122,84.351587 h 32.1791 V 191.61526 h 10.726367 v 32.1791 H 15.359978 q -32.1791,0 -32.1791,-32.1791 z" />
        <path
           id="path20"
           style="font-style:normal;font-variant:normal;font-weight:normal;font-stretch:normal;font-family:'Japanese 3017';-inkscape-font-specification:'Japanese 3017, ';fill:#333333;fill-opacity:1;stroke:none;stroke-width:5.4919"
           d="M 165.52912,84.351587 V 191.61526 h 10.72636 v 32.1791 h -10.72636 q -32.1791,0 -32.1791,-32.1791 v -74.97731 q -64.250942,2.57433 -64.358206,53.41731 v 53.7391 h -32.1791 V 84.351587 h 32.1791 V 101.62104 Q 92.589822,84.351587 133.35002,84.351587 Z" />
        <path
           id="path22"
           style="font-style:normal;font-variant:normal;font-weight:normal;font-stretch:normal;font-family:'Japanese 3017';-inkscape-font-specification:'Japanese 3017, ';fill:#333333;fill-opacity:1;stroke:none;stroke-width:5.4919"
           d="m 219.16094,116.53069 v 75.08457 l 53.63184,-0.10727 v -74.9773 z m 42.90547,-32.286367 h 42.90547 V 223.79436 h -32.1791 v -0.10727 l -53.63184,0.10727 h -32.1791 V 84.351587 h 42.90547 V 73.62522 h 32.1791 z" />
        <path
           id="path24"
           style="font-style:normal;font-variant:normal;font-weight:normal;font-stretch:normal;font-family:'Japanese 3017';-inkscape-font-specification:'Japanese 3017, ';fill:#333333;fill-opacity:1;stroke:none;stroke-width:1.09714"
           d="M 122.85742,2.1425781 V 8.5722656 H 125 v 4.2851564 h -0.0293 v 6.427734 H 125 v 4.28711 h -2.0957 V 30 h 19.23828 c 4.28571,0 6.42969,-2.142021 6.42969,-6.427734 V 2.1425781 Z m 8.57031,6.4296875 h 10.71485 v 4.2851564 h -10.71485 z m 0,10.7128904 h 10.71485 v 4.28711 h -10.71485 z"
           transform="matrix(5.0056375,0,0,5.0056375,-299.2801,73.625227)" />
        <path
           id="path26"
           style="font-style:normal;font-variant:normal;font-weight:normal;font-stretch:normal;font-family:'Japanese 3017';-inkscape-font-specification:'Japanese 3017, ';fill:#333333;fill-opacity:1;stroke:none;stroke-width:5.4919"
           d="m 455.14102,84.351587 h 32.1791 V 191.61526 h 10.72637 v 32.1791 h -10.72637 q -32.1791,0 -32.1791,-32.1791 z" />
      </g>
    </g>
  </g>
</svg>
